<?xml version="1.0" encoding="UTF-8"?>
<svg width="620px" height="620px" viewBox="0 0 620 620" xmlns="http://www.w3.org/2000/svg">
<style>
#logo {
    fill: none;
    stroke: rgba(244, 244, 244, 1);
    stroke-width: 30px;
    stroke-linecap: round;
    transform: scale(0.8);
    transform-origin: center;
    shape-rendering: geometricPrecision;
}
#squaricle {
    fill: rgba(241,68,41,0.9);
]}
</style>
<g id="squaricle">
    <path d="
        M 310,  615
        C 376,  615,  481,  615,  548,  548
        C 615,  481,  615,  376,  615,  310
        C 615,  244,  615,  139,  548,   72
        C 481,    5,  376,    5,  310,    5
        C 244,    5,  139,    5,   72,   72
        C   5,  139,    5,  244,    5,  310
        C   5,  376,    5,  481,   72,  548
        C 139,  615,  244,  615,  310,  615 Z
    " />
</g>
<g id="logo">
    <!-- <rect x="10" y="10" width="600" height="600" rx="50" /> -->
    <path id="sign" d="
        M 110 510
        H 460
        a 50 50 0 0 0 0 -100
        H 160
        a 50 50 0 0 1 0 -100
        H 460
        a 50 50 0 0 0 0 -100
        H 160
        a 50 50 0 0 1 0 -100
        H 510" />
</g>
</svg>