<?xml version="1.0" encoding="UTF-8"?>
<svg id="Layer_1" xmlns="http://www.w3.org/2000/svg" version="1.1" viewBox="0 0 620 620">
  <defs>
    <style>
      .page, .page-corner {
        fill: none;
        stroke: rgba(241,68,41,1);
        stroke-width: 12px;
      }
    </style>
  </defs>
    <path class="page" d="M610,449c0,2.8-1.1,5.6-3.2,7.8l-150,150c-2,2-4.7,3.2-7.8,3.2H21c-6.1,0-11-4.9-11-11V21c0-6.1,4.9-11,11-11h578c6.1,0,11,4.9,11,11v428Z"/>
    <path class="page-corner" d="M606.8,456.8c-2,2-4.7,3.2-7.8,3.2h-128c-6.1,0-11,4.9-11,11v128c0,3-1.2,5.8-3.2,7.8l150-150Z"/>

      <g>
    <path class="st1" d="M139.3,144.6l-6.2,14.8c-.9,2.2-2.9,3.9-5.5,3.9s-5.8-2.7-5.8-5.8,0-1.5.4-2.2l24.3-59c.6-1.5,2.3-3.7,5.4-3.7s4.9,2.3,5.4,3.7l24.3,59c.3.7.4,1.6.4,2.2,0,3.2-2.7,5.8-5.8,5.8s-4.7-1.8-5.5-3.9l-6.2-14.8h-24.9ZM151.7,112.2l-8.4,21.6h16.8l-8.4-21.6h0Z"/>
    <path class="st1" d="M239.4,151.5c3.4,0,5.7,2.5,5.7,5.5s-2.4,5.5-5.7,5.5h-30.4c-3.4,0-5.8-2.5-5.8-5.7v-58.2c0-3.3,2.7-5.9,5.9-5.9s5.9,2.7,5.9,5.9v52.9h24.4,0Z"/>
    <path class="st1" d="M281.3,104v53.5c0,3.3-2.7,5.9-5.9,5.9s-5.9-2.7-5.9-5.9v-53.5h-15.7c-2.9,0-5.2-2.4-5.2-5.2s2.4-5.2,5.2-5.2h43.3c2.9,0,5.2,2.4,5.2,5.2s-2.4,5.2-5.2,5.2h-15.7,0Z"/>
    <path class="st1" d="M335.9,122.5h19.4c2.9,0,5.2,2.4,5.2,5.2s-2.4,5.2-5.2,5.2h-19.4v18.9h27.2c3,0,5.3,2.4,5.3,5.3s-2.4,5.3-5.3,5.3h-33.2c-3.3,0-5.9-2.7-5.9-5.9v-57.1c0-3.3,2.7-5.9,5.9-5.9h32c3,0,5.3,2.4,5.3,5.3s-2.4,5.3-5.3,5.3h-26v18.4-.2Z"/>
    <path class="st1" d="M402.8,136.1v21.4c0,3.3-2.7,5.9-5.9,5.9s-5.9-2.7-5.9-5.9v-58c0-3.3,2.7-5.9,5.9-5.9h19.6c13.9,0,21.7,9.8,21.7,21.5s-5.9,19.2-15.8,20.4l15.1,18.5c.9,1.2,1.2,2.5,1.2,3.6,0,3.3-2.7,5.9-5.9,5.9s-3.6-.8-4.7-2.2l-18.7-25.1h-6.6,0ZM402.8,104.2v21.5h13.9c6.3,0,9.1-5.2,9.1-10.7s-2.8-10.8-9.4-10.8h-13.6Z"/>
    <path class="st1" d="M178,219.6v59c0,3.2-2.7,5.8-5.8,5.8s-3.8-1-4.9-2.6l-30.3-43.7v40.4c0,3.2-2.7,5.8-5.8,5.8s-5.8-2.7-5.8-5.8v-59c0-3.2,2.7-5.8,5.8-5.8s3.7.9,4.8,2.5l30.4,44.1v-40.6c0-3.2,2.7-5.8,5.8-5.8s5.8,2.7,5.8,5.8h0Z"/>
    <path class="st1" d="M216.5,265.6l-6.2,14.8c-.9,2.2-2.9,3.9-5.5,3.9s-5.8-2.7-5.8-5.8,0-1.5.4-2.2l24.3-59c.6-1.5,2.3-3.7,5.4-3.7s4.9,2.3,5.4,3.7l24.3,59c.3.7.4,1.6.4,2.2,0,3.2-2.7,5.8-5.8,5.8s-4.7-1.8-5.5-3.9l-6.2-14.8h-24.9ZM229,233.3l-8.4,21.6h16.8l-8.4-21.6h0Z"/>
    <path class="st1" d="M299,225.1v53.5c0,3.3-2.7,5.9-5.9,5.9s-5.9-2.7-5.9-5.9v-53.5h-15.7c-2.9,0-5.2-2.4-5.2-5.2s2.4-5.2,5.2-5.2h43.3c2.9,0,5.2,2.4,5.2,5.2s-2.4,5.2-5.2,5.2h-15.7,0Z"/>
    <path class="st1" d="M353.5,278.5c0,3.3-2.7,5.9-5.9,5.9s-5.9-2.7-5.9-5.9v-58.8c0-3.3,2.7-5.9,5.9-5.9s5.9,2.7,5.9,5.9v58.8Z"/>
    <path class="st1" d="M398.7,280.6l-23.3-58.7c-.3-.7-.4-1.3-.4-2.3,0-3.3,2.7-5.9,5.9-5.9s4.9,1.9,5.4,3.5l17.8,47.3,17.8-47.3c.6-1.6,2.5-3.5,5.4-3.5s5.9,2.7,5.9,5.9,0,1.6-.4,2.3l-23.3,58.7c-.8,2.1-2.5,3.8-5.5,3.8s-4.8-1.8-5.5-3.8h0Z"/>
    <path class="st1" d="M466.8,243.6h19.4c2.9,0,5.2,2.4,5.2,5.2s-2.4,5.2-5.2,5.2h-19.4v18.9h27.2c3,0,5.3,2.4,5.3,5.3s-2.4,5.3-5.3,5.3h-33.2c-3.3,0-5.9-2.7-5.9-5.9v-57.1c0-3.3,2.7-5.9,5.9-5.9h32c3,0,5.3,2.4,5.3,5.3s-2.4,5.3-5.3,5.3h-26v18.4-.2Z"/>
    <path class="st1" d="M125.8,382.1v-41.4c0-3.3,2.7-5.9,5.9-5.9s5.9,2.7,5.9,5.9v41.4c0,6.2,2.4,13.6,14,13.6s14-7.3,14-13.6v-41.4c0-3.3,2.7-5.9,5.9-5.9s5.9,2.7,5.9,5.9v41.4c0,11.7-5.1,24.1-25.8,24.1s-25.8-12.3-25.8-24.1Z"/>
    <path class="st1" d="M254.8,340.7v59c0,3.2-2.7,5.8-5.8,5.8s-3.8-1-4.9-2.6l-30.3-43.7v40.4c0,3.2-2.7,5.8-5.8,5.8s-5.8-2.7-5.8-5.8v-59c0-3.2,2.7-5.8,5.8-5.8s3.7.9,4.8,2.5l30.4,44.1v-40.6c0-3.2,2.7-5.8,5.8-5.8s5.8,2.7,5.8,5.8h0Z"/>
    <path class="st1" d="M291.8,378.2v21.4c0,3.3-2.7,5.9-5.9,5.9s-5.9-2.7-5.9-5.9v-58c0-3.3,2.7-5.9,5.9-5.9h19.6c13.9,0,21.7,9.8,21.7,21.5s-5.9,19.2-15.8,20.4l15.1,18.5c.9,1.2,1.2,2.5,1.2,3.6,0,3.3-2.7,5.9-5.9,5.9s-3.6-.8-4.7-2.2l-18.7-25.1h-6.6,0ZM291.8,346.3v21.5h13.9c6.3,0,9.1-5.2,9.1-10.7s-2.8-10.8-9.4-10.8h-13.6Z"/>
    <path class="st1" d="M362.6,364.6h19.4c2.9,0,5.2,2.4,5.2,5.2s-2.4,5.2-5.2,5.2h-19.4v18.9h27.2c3,0,5.3,2.4,5.3,5.3s-2.4,5.3-5.3,5.3h-33.2c-3.3,0-5.9-2.7-5.9-5.9v-57.1c0-3.3,2.7-5.9,5.9-5.9h32c3,0,5.3,2.4,5.3,5.3s-2.4,5.3-5.3,5.3h-26v18.4-.2Z"/>
    <path class="st1" d="M139.3,507.8l-6.2,14.8c-.9,2.2-2.9,3.9-5.5,3.9s-5.8-2.7-5.8-5.8,0-1.5.4-2.2l24.3-59c.6-1.5,2.3-3.7,5.4-3.7s4.9,2.3,5.4,3.7l24.3,59c.3.7.4,1.6.4,2.2,0,3.2-2.7,5.8-5.8,5.8s-4.7-1.8-5.5-3.9l-6.2-14.8h-24.9ZM151.7,475.3l-8.4,21.6h16.8l-8.4-21.6h0Z"/>
    <path class="st1" d="M239.4,514.6c3.4,0,5.7,2.5,5.7,5.5s-2.4,5.5-5.7,5.5h-30.4c-3.4,0-5.8-2.5-5.8-5.7v-58.2c0-3.3,2.7-5.9,5.9-5.9s5.9,2.7,5.9,5.9v52.9h24.4,0Z"/>
    <path class="st1" d="M278.8,520.5c0,3.3-2.7,5.9-5.9,5.9s-5.9-2.7-5.9-5.9v-58.8c0-3.3,2.7-5.9,5.9-5.9s5.9,2.7,5.9,5.9v58.8Z"/>
    <path class="st1" d="M333.3,467.1v53.5c0,3.3-2.7,5.9-5.9,5.9s-5.9-2.7-5.9-5.9v-53.5h-15.7c-2.9,0-5.2-2.4-5.2-5.2s2.4-5.2,5.2-5.2h43.3c2.9,0,5.2,2.4,5.2,5.2s-2.4,5.2-5.2,5.2h-15.7,0Z"/>
    <path class="st1" d="M398.2,482.9l15.4-24.4c1-1.7,2.9-2.8,5-2.8,3.3,0,5.9,2.7,5.9,5.9s-.3,2.4-.9,3.2l-19.6,29.2v26.3c0,3.3-2.7,5.9-5.9,5.9s-5.9-2.7-5.9-5.9v-26.3l-19.6-29.2c-.6-.8-.9-2.1-.9-3.2,0-3.3,2.7-5.9,5.9-5.9s3.9,1,5,2.8l15.4,24.4h0Z"/>
  </g>
  
</svg>