<?xml version="1.0" encoding="UTF-8"?>
<svg id="Layer_1" xmlns="http://www.w3.org/2000/svg" version="1.1" viewBox="0 0 620 620">
  <!-- Generator: Adobe Illustrator 29.5.1, SVG Export Plug-In . SVG Version: 2.1.0 Build 141)  -->
  <defs>
    <style>
      .st0 {
        fill: none;
      }

      .st1 {
        fill: #010101;
      }
    </style>
  </defs>
  <path class="st0" d="M610,449c0,2.8-1.1,5.6-3.2,7.8l-150,150c-2,2-4.7,3.2-7.8,3.2H21c-6.1,0-11-4.9-11-11V21c0-6.1,4.9-11,11-11h578c6.1,0,11,4.9,11,11v428Z"/>
  <path class="st0" d="M606.8,456.8c-2,2-4.7,3.2-7.8,3.2h-128c-6.1,0-11,4.9-11,11v128c0,3-1.2,5.8-3.2,7.8l150-150Z"/>

</svg>