<?xml version="1.0" encoding="UTF-8"?>
<svg id="Layer_1" xmlns="http://www.w3.org/2000/svg" version="1.1" viewBox="0 0 620 620">
  <defs>
    <style>
      .page, .page-corner {
        fill: none;
        stroke: rgba(241,68,41,1);
        stroke-width: 12px;
      }
    </style>
  </defs>
    <path class="page" d="M610,449c0,2.8-1.1,5.6-3.2,7.8l-150,150c-2,2-4.7,3.2-7.8,3.2H21c-6.1,0-11-4.9-11-11V21c0-6.1,4.9-11,11-11h578c6.1,0,11,4.9,11,11v428Z"/>
    <path class="page-corner" d="M606.8,456.8c-2,2-4.7,3.2-7.8,3.2h-128c-6.1,0-11,4.9-11,11v128c0,3-1.2,5.8-3.2,7.8l150-150Z"/>
</svg>