<?xml version="1.0" encoding="utf-8"?>
<!-- Generator: Adobe Illustrator 29.3.1, SVG Export Plug-In . SVG Version: 9.03 Build 55982)  -->
<svg xmlns="http://www.w3.org/2000/svg" x="0px" y="0px" viewBox="0 0 1920 1920" preserveAspectRatio="meet" xml:space="preserve">
<style>
line {
    fill: none;
    stroke: rgba(126,125,125,0.25);
    stroke-width: 1;
	vector-effect: non-scaling-stroke;
	shape-rendering: geometricPrecision;
    mix-blend-mode: multiply;
}
</style>
<line x1="32" y1="0" x2="32" y2="64"/>
<line x1="0" y1="32" x2="64" y2="32"/>
<line x1="272" y1="0" x2="272" y2="64"/>
<line x1="240" y1="32" x2="304" y2="32"/>
<line x1="512" y1="0" x2="512" y2="64"/>
<line x1="480" y1="32" x2="544" y2="32"/>
<line x1="752" y1="0" x2="752" y2="64"/>
<line x1="720" y1="32" x2="784" y2="32"/>
<line x1="992" y1="0" x2="992" y2="64"/>
<line x1="960" y1="32" x2="1024" y2="32"/>
<line x1="1232" y1="0" x2="1232" y2="64"/>
<line x1="1200" y1="32" x2="1264" y2="32"/>
<line x1="1472" y1="0" x2="1472" y2="64"/>
<line x1="1440" y1="32" x2="1504" y2="32"/>
<line x1="1712" y1="0" x2="1712" y2="64"/>
<line x1="1680" y1="32" x2="1744" y2="32"/>
<line x1="32" y1="240" x2="32" y2="304"/>
<line x1="0" y1="272" x2="64" y2="272"/>
<line x1="272" y1="240" x2="272" y2="304"/>
<line x1="240" y1="272" x2="304" y2="272"/>
<line x1="512" y1="240" x2="512" y2="304"/>
<line x1="480" y1="272" x2="544" y2="272"/>
<line x1="752" y1="240" x2="752" y2="304"/>
<line x1="720" y1="272" x2="784" y2="272"/>
<line x1="992" y1="240" x2="992" y2="304"/>
<line x1="960" y1="272" x2="1024" y2="272"/>
<line x1="1232" y1="240" x2="1232" y2="304"/>
<line x1="1200" y1="272" x2="1264" y2="272"/>
<line x1="1472" y1="240" x2="1472" y2="304"/>
<line x1="1440" y1="272" x2="1504" y2="272"/>
<line x1="1712" y1="240" x2="1712" y2="304"/>
<line x1="1680" y1="272" x2="1744" y2="272"/>
<line x1="32" y1="480" x2="32" y2="544"/>
<line x1="0" y1="512" x2="64" y2="512"/>
<line x1="272" y1="480" x2="272" y2="544"/>
<line x1="240" y1="512" x2="304" y2="512"/>
<line x1="512" y1="448" x2="512" y2="576"/>
<line x1="448" y1="512" x2="576" y2="512"/>
<line x1="752" y1="480" x2="752" y2="544"/>
<line x1="720" y1="512" x2="784" y2="512"/>
<line x1="992" y1="480" x2="992" y2="544"/>
<line x1="960" y1="512" x2="1024" y2="512"/>
<line x1="1232" y1="480" x2="1232" y2="544"/>
<line x1="1200" y1="512" x2="1264" y2="512"/>
<line x1="1472" y1="480" x2="1472" y2="544"/>
<line x1="1440" y1="512" x2="1504" y2="512"/>
<line x1="1712" y1="480" x2="1712" y2="544"/>
<line x1="1680" y1="512" x2="1744" y2="512"/>
<line x1="32" y1="720" x2="32" y2="784"/>
<line x1="0" y1="752" x2="64" y2="752"/>
<line x1="272" y1="720" x2="272" y2="784"/>
<line x1="240" y1="752" x2="304" y2="752"/>
<line x1="512" y1="720" x2="512" y2="784"/>
<line x1="480" y1="752" x2="544" y2="752"/>
<line x1="752" y1="720" x2="752" y2="784"/>
<line x1="720" y1="752" x2="784" y2="752"/>
<line x1="992" y1="720" x2="992" y2="784"/>
<line x1="960" y1="752" x2="1024" y2="752"/>
<line x1="1232" y1="720" x2="1232" y2="784"/>
<line x1="1200" y1="752" x2="1264" y2="752"/>
<line x1="1472" y1="720" x2="1472" y2="784"/>
<line x1="1440" y1="752" x2="1504" y2="752"/>
<line x1="1712" y1="720" x2="1712" y2="784"/>
<line x1="1680" y1="752" x2="1744" y2="752"/>
<line x1="32" y1="960" x2="32" y2="1024"/>
<line x1="0" y1="992" x2="64" y2="992"/>
<line x1="272" y1="928" x2="272" y2="1056"/>
<line x1="208" y1="992" x2="336" y2="992"/>
<line x1="512" y1="960" x2="512" y2="1024"/>
<line x1="480" y1="992" x2="544" y2="992"/>
<line x1="752" y1="960" x2="752" y2="1024"/>
<line x1="720" y1="992" x2="784" y2="992"/>
<line x1="992" y1="960" x2="992" y2="1024"/>
<line x1="960" y1="992" x2="1024" y2="992"/>
<line x1="1232" y1="960" x2="1232" y2="1024"/>
<line x1="1200" y1="992" x2="1264" y2="992"/>
<line x1="1472" y1="960" x2="1472" y2="1024"/>
<line x1="1440" y1="992" x2="1504" y2="992"/>
<line x1="1712" y1="960" x2="1712" y2="1024"/>
<line x1="1680" y1="992" x2="1744" y2="992"/>
<line x1="32" y1="1200" x2="32" y2="1264"/>
<line x1="0" y1="1232" x2="64" y2="1232"/>
<line x1="272" y1="1200" x2="272" y2="1264"/>
<line x1="240" y1="1232" x2="304" y2="1232"/>
<line x1="512" y1="1200" x2="512" y2="1264"/>
<line x1="480" y1="1232" x2="544" y2="1232"/>
<line x1="752" y1="1200" x2="752" y2="1264"/>
<line x1="720" y1="1232" x2="784" y2="1232"/>
<line x1="992" y1="1200" x2="992" y2="1264"/>
<line x1="960" y1="1232" x2="1024" y2="1232"/>
<line x1="1232" y1="1200" x2="1232" y2="1264"/>
<line x1="1200" y1="1232" x2="1264" y2="1232"/>
<line x1="1472" y1="1200" x2="1472" y2="1264"/>
<line x1="1440" y1="1232" x2="1504" y2="1232"/>
<line x1="1712" y1="1200" x2="1712" y2="1264"/>
<line x1="1680" y1="1232" x2="1744" y2="1232"/>
<line x1="32" y1="1440" x2="32" y2="1504"/>
<line x1="0" y1="1472" x2="64" y2="1472"/>
<line x1="272" y1="1440" x2="272" y2="1504"/>
<line x1="240" y1="1472" x2="304" y2="1472"/>
<line x1="512" y1="1440" x2="512" y2="1504"/>
<line x1="480" y1="1472" x2="544" y2="1472"/>
<line x1="752" y1="1440" x2="752" y2="1504"/>
<line x1="720" y1="1472" x2="784" y2="1472"/>
<line x1="992" y1="1440" x2="992" y2="1504"/>
<line x1="960" y1="1472" x2="1024" y2="1472"/>
<line x1="1232" y1="1389" x2="1232" y2="1555"/>
<line x1="1149" y1="1472" x2="1315" y2="1472"/>
<line x1="1472" y1="1440" x2="1472" y2="1504"/>
<line x1="1440" y1="1472" x2="1504" y2="1472"/>
<line x1="1712" y1="1440" x2="1712" y2="1504"/>
<line x1="1680" y1="1472" x2="1744" y2="1472"/>
<line x1="32" y1="1680" x2="32" y2="1744"/>
<line x1="0" y1="1712" x2="64" y2="1712"/>
<line x1="272" y1="1680" x2="272" y2="1744"/>
<line x1="240" y1="1712" x2="304" y2="1712"/>
<line x1="512" y1="1680" x2="512" y2="1744"/>
<line x1="480" y1="1712" x2="544" y2="1712"/>
<line x1="752" y1="1680" x2="752" y2="1744"/>
<line x1="720" y1="1712" x2="784" y2="1712"/>
<line x1="992" y1="1680" x2="992" y2="1744"/>
<line x1="960" y1="1712" x2="1024" y2="1712"/>
<line x1="1232" y1="1680" x2="1232" y2="1744"/>
<line x1="1200" y1="1712" x2="1264" y2="1712"/>
<line x1="1472" y1="1680" x2="1472" y2="1744"/>
<line x1="1440" y1="1712" x2="1504" y2="1712"/>
<line x1="1712" y1="1680" x2="1712" y2="1744"/>
<line x1="1680" y1="1712" x2="1744" y2="1712"/>
</svg>